<?xml version="1.0" encoding="utf-8"?>
<!-- Generator: Adobe Illustrator 16.0.0, SVG Export Plug-In . SVG Version: 6.00 Build 0)  -->
<!DOCTYPE svg PUBLIC "-//W3C//DTD SVG 1.1//EN" "http://www.w3.org/Graphics/SVG/1.1/DTD/svg11.dtd">
<svg version="1.1" xmlns="http://www.w3.org/2000/svg" xmlns:xlink="http://www.w3.org/1999/xlink" x="0px" y="0px" width="289px"
	 height="71.3px" viewBox="0 0 289 71.3" style="enable-background:new 0 0 289 71.3;" xml:space="preserve">
<g id="Шар_4">
</g>
<g id="Шар_1">
	<g>
		<g>
			<path style="fill:#FEC238;" d="M94.6,60.9v-9.2c0-0.4,0.1-0.5,1-0.5c0.8,0,1,0,1.2,0.6l1.9,5.2h0.1l1.9-5.2
				c0.2-0.5,0.4-0.6,1.2-0.6c0.9,0,1,0.1,1,0.5v9.2c0,0.4-0.1,0.4-0.7,0.4c-0.5,0-0.7-0.1-0.7-0.4c0-2.5,0-5.3,0-7.8h-0.1l-1.9,5.1
				c-0.2,0.4-0.3,0.5-0.8,0.5c-0.5,0-0.6-0.1-0.8-0.5L96.1,53h-0.1c0,2.5,0,5.3,0,7.8c0,0.4-0.1,0.4-0.7,0.4
				C94.7,61.3,94.6,61.2,94.6,60.9z"/>
			<path style="fill:#FEC238;" d="M104.8,57.3c0-3.9,1.2-4.3,3.2-4.3c2.6,0,2.9,1.2,2.9,3.8c0,0.5-0.1,0.7-0.6,0.7h-4.1
				c0,2.3,0.3,2.7,2.1,2.7c1.3,0,2.1-0.3,2.3-0.3c0.1,0,0.2,0.1,0.2,0.5c0,0.4-0.1,0.5-0.4,0.6c-0.5,0.2-1.5,0.3-2.3,0.3
				C105.8,61.5,104.8,61,104.8,57.3z M106.2,56.7h3.4c0-1.7,0-2.4-1.6-2.4C106.7,54.2,106.3,54.5,106.2,56.7z"/>
			<path style="fill:#FEC238;" d="M112.5,57.3c0-3.5,1-4.2,3.1-4.2c1,0,1.7,0.2,2.1,0.9v-3c0-0.4,0.1-0.4,0.7-0.4
				c0.5,0,0.7,0.1,0.7,0.4v7.3c0,1.6,0.4,2.4,0.4,2.6c0,0.2-0.1,0.3-0.6,0.3c-0.5,0-0.6,0-0.7-0.4l-0.2-0.9
				c-0.4,0.9-1.2,1.4-2.6,1.4C113,61.5,112.5,60.5,112.5,57.3z M117.7,57.9v-1.2c0-1.8-0.3-2.4-1.9-2.4c-1.6,0-1.9,0.4-1.9,3.1
				c0,2.5,0.3,2.9,1.7,2.9C117,60.3,117.7,60,117.7,57.9z"/>
			<path style="fill:#FEC238;" d="M121.1,51.5v-0.3c0-0.4,0.1-0.5,0.8-0.5c0.6,0,0.8,0.1,0.8,0.5v0.3c0,0.4-0.1,0.5-0.8,0.5
				C121.2,52,121.1,51.9,121.1,51.5z M121.1,60.9v-7.2c0-0.4,0.1-0.4,0.7-0.4c0.5,0,0.7,0,0.7,0.4v7.2c0,0.4-0.1,0.4-0.7,0.4
				C121.3,61.3,121.1,61.2,121.1,60.9z"/>
			<path style="fill:#FEC238;" d="M124.4,57.3c0-3.9,1.3-4.3,3.2-4.3c0.7,0,1.4,0.1,2,0.3c0.3,0.1,0.4,0.2,0.4,0.6
				c0,0.4-0.1,0.5-0.2,0.5c-0.2,0-1.2-0.3-2.1-0.3c-1.4,0-1.9,0.3-1.9,3c0,2.7,0.2,3.1,1.9,3.1c1.1,0,1.8-0.3,2-0.3
				c0.1,0,0.2,0.1,0.2,0.5c0,0.4-0.1,0.5-0.4,0.6c-0.5,0.2-1.4,0.3-2.1,0.3C125.4,61.5,124.4,61,124.4,57.3z"/>
			<path style="fill:#FEC238;" d="M131.3,59.2c0-1.7,0.8-2.3,3-2.3h1.8v-1.3c0-1.2-0.4-1.3-1.5-1.3c-1.3,0-2.1,0.3-2.5,0.3
				c-0.2,0-0.3-0.1-0.3-0.5c0-0.4,0.1-0.5,0.3-0.6c0.6-0.2,1.6-0.3,2.5-0.3c1.8,0,2.7,0.3,2.7,2.2v3.1c0,1.6,0.4,2.4,0.4,2.6
				c0,0.2-0.1,0.3-0.6,0.3c-0.5,0-0.6,0-0.7-0.4l-0.3-1.1c-0.5,1.1-1.6,1.6-2.8,1.6C131.9,61.5,131.3,60.8,131.3,59.2z M136,58.3
				v-0.6l-1.8,0c-1.3,0-1.6,0.3-1.6,1.2c0,1.1,0.4,1.3,1.2,1.3C135,60.3,136,59.6,136,58.3z"/>
			<path style="fill:#FEC238;" d="M139.6,60.9V51c0-0.4,0.1-0.4,0.7-0.4c0.5,0,0.7,0.1,0.7,0.4v9.8c0,0.4-0.1,0.4-0.7,0.4
				C139.7,61.3,139.6,61.2,139.6,60.9z"/>
			<path style="fill:#FEC238;" d="M146.1,57.3c0-3.9,1.3-4.3,3.2-4.3c0.7,0,1.4,0.1,2,0.3c0.3,0.1,0.4,0.2,0.4,0.6
				c0,0.4-0.1,0.5-0.2,0.5c-0.2,0-1.2-0.3-2.1-0.3c-1.4,0-1.9,0.3-1.9,3c0,2.7,0.2,3.1,1.9,3.1c1.1,0,1.8-0.3,2-0.3
				c0.1,0,0.2,0.1,0.2,0.5c0,0.4-0.1,0.5-0.4,0.6c-0.5,0.2-1.4,0.3-2.1,0.3C147,61.5,146.1,61,146.1,57.3z"/>
			<path style="fill:#FEC238;" d="M153.3,60.9V51c0-0.4,0.1-0.4,0.7-0.4c0.5,0,0.7,0.1,0.7,0.4v9.8c0,0.4-0.1,0.4-0.7,0.4
				C153.4,61.3,153.3,61.2,153.3,60.9z"/>
			<path style="fill:#FEC238;" d="M156.5,51.5v-0.3c0-0.4,0.1-0.5,0.8-0.5c0.6,0,0.8,0.1,0.8,0.5v0.3c0,0.4-0.1,0.5-0.8,0.5
				C156.6,52,156.5,51.9,156.5,51.5z M156.6,60.9v-7.2c0-0.4,0.1-0.4,0.7-0.4c0.5,0,0.7,0,0.7,0.4v7.2c0,0.4-0.1,0.4-0.7,0.4
				C156.8,61.3,156.6,61.2,156.6,60.9z"/>
			<path style="fill:#FEC238;" d="M160.2,60.9v-4.7c0-1.6-0.4-2.4-0.4-2.6c0-0.2,0.1-0.3,0.6-0.3c0.5,0,0.6,0,0.7,0.4l0.2,1
				c0.4-1,1.3-1.5,2.8-1.5c1.8,0,2.2,0.7,2.2,2.1v5.6c0,0.4-0.1,0.4-0.7,0.4c-0.5,0-0.7-0.1-0.7-0.4v-5.3c0-1-0.2-1.3-1.3-1.3
				c-1.6,0-2.1,0.8-2.1,2.8v3.8c0,0.4-0.1,0.4-0.7,0.4C160.4,61.3,160.2,61.2,160.2,60.9z"/>
			<path style="fill:#FEC238;" d="M168.3,51.5v-0.3c0-0.4,0.1-0.5,0.8-0.5c0.6,0,0.8,0.1,0.8,0.5v0.3c0,0.4-0.1,0.5-0.8,0.5
				C168.4,52,168.3,51.9,168.3,51.5z M168.4,60.9v-7.2c0-0.4,0.1-0.4,0.7-0.4c0.5,0,0.7,0,0.7,0.4v7.2c0,0.4-0.1,0.4-0.7,0.4
				C168.5,61.3,168.4,61.2,168.4,60.9z"/>
			<path style="fill:#FEC238;" d="M171.7,57.3c0-3.9,1.3-4.3,3.2-4.3c0.7,0,1.4,0.1,2,0.3c0.3,0.1,0.4,0.2,0.4,0.6
				c0,0.4-0.1,0.5-0.2,0.5c-0.2,0-1.2-0.3-2.1-0.3c-1.4,0-1.9,0.3-1.9,3c0,2.7,0.2,3.1,1.9,3.1c1.1,0,1.8-0.3,2-0.3
				c0.1,0,0.2,0.1,0.2,0.5c0,0.4-0.1,0.5-0.4,0.6c-0.5,0.2-1.4,0.3-2.1,0.3C172.6,61.5,171.7,61,171.7,57.3z"/>
		</g>
		<g>
			<path style="fill:#FFFFFF;" d="M96.3,40.2c-1.4-0.2-1.7-0.6-1.7-1.7V13.2c0-1.4,0.5-1.7,1.6-1.8c1.9-0.2,4.8-0.4,6.7-0.4
				c7,0,10.3,0.7,10.3,7.3c0,3.6-0.7,5.9-3.6,6.7c3.3,0.7,4.6,2.7,4.6,7.4c0,6.1-2.1,8.2-10.3,8.2C100.9,40.6,98.6,40.5,96.3,40.2z
				 M100,23.3h3.4c3.7,0,4.3-0.7,4.3-4.2c0-2.9-0.5-3.5-4.1-3.5c-1.4,0-2.8,0.1-3.7,0.2V23.3z M100,36c1.1,0.1,2.7,0.2,4.2,0.2
				c4,0,4.5-0.6,4.5-4.7c0-3.5-0.7-4.4-4.3-4.4H100V36z"/>
			<path style="fill:#FFFFFF;" d="M117.3,39c0-0.4,0.1-0.9,0.3-1.6l6.3-23.6c0.6-2.2,1.4-2.5,5.1-2.5s4.4,0.3,5,2.5l6.4,23.6
				c0.2,0.7,0.3,1.3,0.3,1.6c0,0.9-0.3,1.3-2.6,1.3c-2.3,0-2.8-0.3-3.1-1.5l-1.7-6.2h-8.9l-1.5,6.2c-0.3,1.3-0.7,1.5-3.1,1.5
				C117.7,40.2,117.3,39.9,117.3,39z M125.6,28.3h6.9l-3.2-12.4h-0.6L125.6,28.3z"/>
			<path style="fill:#FFFFFF;" d="M146.1,40.2c-1.4-0.2-1.7-0.6-1.7-1.7V13.2c0-1.4,0.5-1.7,1.6-1.8c1.9-0.2,4.8-0.4,6.7-0.4
				c7,0,10.3,0.7,10.3,7.3c0,3.6-0.7,5.9-3.6,6.7c3.3,0.7,4.6,2.7,4.6,7.4c0,6.1-2.1,8.2-10.3,8.2C150.7,40.6,148.4,40.5,146.1,40.2
				z M149.8,23.3h3.4c3.7,0,4.3-0.7,4.3-4.2c0-2.9-0.5-3.5-4.1-3.5c-1.4,0-2.8,0.1-3.7,0.2V23.3z M149.8,36c1.1,0.1,2.7,0.2,4.2,0.2
				c4,0,4.5-0.6,4.5-4.7c0-3.5-0.7-4.4-4.3-4.4h-4.5V36z"/>
			<path style="fill:#FFFFFF;" d="M174.4,38.6v-9l-7-14.9c-0.6-1.3-0.7-1.8-0.7-2.1c0-0.7,0.4-1.3,2.4-1.3c2.7,0,3,0.3,3.5,1.5
				L177,24h0.2l4.3-11.1c0.5-1.3,0.8-1.5,3.4-1.5c2.1,0,2.5,0.6,2.5,1.2c0,0.3-0.1,0.9-0.7,2.2l-7,14.9v9c0,1.4-0.6,1.6-2.7,1.6
				C175,40.2,174.4,40,174.4,38.6z"/>
			<path style="fill:#FFFFFF;" d="M216.5,35.4c1.1,0,1.4,0.5,1.4,2.4c0,1.9-0.4,2.4-1.4,2.4h-13.6c-1.3,0-1.7-0.2-1.7-1.4V12.9
				c0-1.4,0.6-1.6,2.7-1.6c2.1,0,2.7,0.2,2.7,1.6v22.6H216.5z"/>
			<path style="fill:#FFFFFF;" d="M221.5,31.7V12.9c0-1.4,0.6-1.6,2.7-1.6c2.1,0,2.7,0.2,2.7,1.6v19.1c0,3,0.8,4,4.4,4
				c3.6,0,4.4-1,4.4-4V12.9c0-1.4,0.6-1.6,2.7-1.6c2.1,0,2.7,0.2,2.7,1.6v18.8c0,6.6-2.7,8.9-9.8,8.9S221.5,38.2,221.5,31.7z"/>
			<path style="fill:#FFFFFF;" d="M246,28.2v-4.1C246,12,250.4,11,256.1,11c2.4,0,4.8,0.4,6.7,0.9c0.7,0.2,1.1,0.5,1.1,2.5
				c0,1.6-0.3,2.1-0.8,2.1c-0.7,0-2.7-0.7-5.7-0.7c-4.5,0-5.9,0.7-5.9,8.6V27c0,8.3,1.5,8.8,5.9,8.8c3.2,0,4.8-0.7,5.7-0.7
				c0.7,0,0.8,0.4,0.8,2.1c0,2-0.4,2.3-1.1,2.5c-1.9,0.6-4.3,0.9-6.8,0.9C250.2,40.6,246,39.6,246,28.2z"/>
			<path style="fill:#FFFFFF;" d="M268.1,38.6V12.9c0-1.4,0.6-1.6,2.7-1.6c2.1,0,2.7,0.2,2.7,1.6v11h0.7l6.7-11.3
				c0.7-1.1,1.1-1.3,3.5-1.3c2.1,0,2.5,0.4,2.5,1.1c0,0.4-0.1,0.8-0.6,1.5L279,25.6l7.6,11.3c0.8,1.2,0.9,1.7,0.9,2.1
				c0,0.7-0.3,1.2-2.8,1.2c-1.9,0-2.5-0.2-3.2-1.3l-7.2-11.6h-0.7v11.2c0,1.4-0.6,1.6-2.7,1.6C268.7,40.2,268.1,40,268.1,38.6z"/>
		</g>
		<path style="fill:#FEC238;" d="M71.1,32.8c-0.2,0-0.4,0-0.6-0.1c-1.3-0.3-2.1-1.6-1.8-3c0.4-1.9,0.7-3.8,0.7-5.7
			c0-9.4-7.7-17.1-17.1-17.1c-4.7,0-9.3,2-12.6,5.5c-0.5,0.5-1.1,0.8-1.8,0.8c-0.7,0-1.3-0.3-1.8-0.8c-3.2-3.5-7.8-5.5-12.6-5.5
			c-9.4,0-17.1,7.7-17.1,17.1c0,2,0.2,3.9,0.7,5.7c0.3,1.3-0.5,2.6-1.8,3c-1.3,0.3-2.6-0.5-3-1.8c-0.5-2.2-0.8-4.5-0.8-6.9
			c0-12.2,9.9-22,22-22c5.3,0,10.4,1.9,14.4,5.3C41.8,3.9,47,2,52.2,2c12.2,0,22,9.9,22,22c0,2.3-0.3,4.6-0.8,6.9
			C73.2,32.1,72.2,32.8,71.1,32.8z"/>
		<path style="fill:#FEC238;" d="M37.9,45c5.4,0,9.8-5.7,9.8-12c0-6.3-4.4-10.7-9.8-10.7S28,26.7,28,33C28,39.3,32.4,45,37.9,45z"/>
		<path style="fill:#FFFFFF;" d="M37.9,40.6c-1.7,0-3.2-0.7-4.3-2c-0.2-0.3-0.3-0.7-0.1-1c0.2-0.3,0.5-0.5,0.8-0.5h7.2
			c0.4,0,0.7,0.2,0.8,0.5c0.2,0.3,0.1,0.7-0.1,1C41.1,39.9,39.5,40.6,37.9,40.6z"/>
		<path style="fill:#583795;" d="M33.8,33.1c-0.5,0-0.9-0.4-0.9-0.9v-2.8c0-0.5,0.4-0.9,0.9-0.9s0.9,0.4,0.9,0.9v2.8
			C34.8,32.7,34.4,33.1,33.8,33.1z"/>
		<path style="fill:#583795;" d="M41.9,33.1c-0.5,0-0.9-0.4-0.9-0.9v-2.8c0-0.5,0.4-0.9,0.9-0.9c0.5,0,0.9,0.4,0.9,0.9v2.8
			C42.8,32.7,42.4,33.1,41.9,33.1z"/>
		<path style="fill:#FFFFFF;" d="M68.3,38.6c-0.9-0.8-2.1-0.8-3.1-0.2c-3,1.8-8.2,4.3-12.3,5.8c-4.7,1.7-9.7,3.1-15,7.3
			c-5.2-4.2-10.2-5.6-15-7.3c-4.1-1.5-9.3-4-12.3-5.8c-1-0.6-2.3-0.6-3.1,0.2s-0.9,2.3-0.2,3.3c5,7.5,12.6,13.4,20,19.3
			c3.2,2.5,6.2,4.9,9.1,7.5c0.5,0.4,1,0.6,1.6,0.6c0.6,0,1.2-0.2,1.6-0.6c2.8-2.5,5.9-4.9,9.1-7.5c7.4-5.9,15-11.8,20-19.3
			C69.2,40.9,69.2,39.5,68.3,38.6z"/>
	</g>
</g>
</svg>
